HIERARCHY
ROOT pelvis
{
  OFFSET 0 100 0
  CHANNELS 6 Xposition Yposition Zposition Zrotation Xrotation Yrotation
  JOINT pelvis_right_femur
  {
    OFFSET -10.78128 -3.44521 -0.5502486
    CHANNELS 3 Zrotation Xrotation Yrotation
    JOINT right_femur_tibia
    {
      OFFSET -0.8047443 -44.0398 -0.1307829
      CHANNELS 3 Zrotation Xrotation Yrotation
      JOINT right_tibia_foot
      {
        OFFSET 3.006224 -47.83518 -5
        CHANNELS 3 Zrotation Xrotation Yrotation
        End Site
        {
          OFFSET 0 -5 15
        }
      }
    }
  }
  JOINT pelvis_left_femur
  {
    OFFSET 10.78128 -3.44521 -0.5502486
    CHANNELS 3 Zrotation Xrotation Yrotation
    JOINT left_femur_tibia
    {
      OFFSET 0.8047443 -44.0398 -0.1307829
      CHANNELS 3 Zrotation Xrotation Yrotation
      JOINT left_tibia_foot
      {
        OFFSET -4.370144 -48.10324 -4.275266
        CHANNELS 3 Zrotation Xrotation Yrotation
        End Site
        {
          OFFSET 0 -5 15
        }
      }
    }
  }
  JOINT pelvis_spine1
  {
    OFFSET 0 6.468898 -3.129235
    CHANNELS 3 Zrotation Xrotation Yrotation
    JOINT spine1
    {
      OFFSET 0 23.15396 4.99043
      CHANNELS 3 Zrotation Xrotation Yrotation
      JOINT spine2
      {
        OFFSET 0 20.79997 -5.064912
        CHANNELS 3 Zrotation Xrotation Yrotation
        JOINT neck
        {
          OFFSET 0 14.38658 9.616178
          CHANNELS 3 Zrotation Xrotation Yrotation
          End Site
          {
            OFFSET 0 20 0
          }
        }
      }
      JOINT right_manubrium
      {
        OFFSET -5.722621 16.35077 3.967754
        CHANNELS 3 Zrotation Xrotation Yrotation
        JOINT right_clavicle
        {
          OFFSET -13.16364 1.694482 -4.693211
          CHANNELS 3 Zrotation Xrotation Yrotation
          JOINT right_humerus
          {
            OFFSET -28.5034 -0.3100689 -2.792744
            CHANNELS 3 Zrotation Xrotation Yrotation
            JOINT right_radius
            {
              OFFSET -25.15693 0.02248979 -1.271978
              CHANNELS 3 Zrotation Xrotation Yrotation
              End Site
              {
                OFFSET -15 0 0
              }
            }
          }
        }
      }
      JOINT left_manubrium
      {
        OFFSET 5.722621 16.35077 3.967754
        CHANNELS 3 Zrotation Xrotation Yrotation
        JOINT left_clavicle
        {
          OFFSET 13.16364 1.694482 -4.693211
          CHANNELS 3 Zrotation Xrotation Yrotation
          JOINT left_humerus
          {
            OFFSET 29.39168 -1.063119 -2.237045
            CHANNELS 3 Zrotation Xrotation Yrotation
            JOINT left_radius
            {
              OFFSET 24.59957 -0.9528479 0.9047498
              CHANNELS 3 Zrotation Xrotation Yrotation
              End Site
              {
                OFFSET 15 -0 -0
              }
            }
          }
        }
      }
    }
  }
}
MOTION
Frames: 19
Frame Time: 0.0416666666667
0 103.5113 0 0.3691152 -1.171599 0.04505058 3.890552 -19.44815 8.303594 -0 38.56207 -0 -5.587627 -15.69022 -3.25502 -6.407836 9.569522 -21.3918 -0 6.385833 -0 8.747496 -17.38177 25.4841 -3.372682 -3.392567 4.180977 2.273285 9.663308 -7.696383 1.592868 22.35556 6.328869 3.047261 -22.96112 9.039631 6.662996 -18.98575 11.77817 84.50335 33.09736 -18.53867 -0 0 15.80031 -8.887665 9.564157 4.409457 6.931766 -20.38277 -1.252848 -93.3395 24.80641 20.72684 0 0 -13.97672 12.13745 19.883 -0.0929833
0.2787931 103.0513 1.891119 0.2529452 -0.9186591 0.1070983 4.030733 -20.79988 7.792074 -0 36.87933 -0 -5.629648 -14.98971 -3.124605 -6.274577 9.923182 -20.95694 -0 6.275754 -0 8.178014 -18.2513 24.82906 -3.339116 -3.233505 4.068936 2.360284 9.530185 -7.733043 1.628286 22.26197 6.331723 3.099018 -23.02754 9.020478 6.572348 -18.74796 11.73812 84.50558 32.66679 -18.7241 -0 0 15.55877 -9.136903 9.658576 4.438719 7.175681 -20.60633 -1.194108 -93.17296 24.67519 20.32043 0 0 -14.25023 12.18132 20.05728 -0.2868713
0.6053427 102.5038 3.855625 0.113148 0.5154678 0.2227368 4.811942 -23.04921 8.504162 -0 33.40002 -0 -5.325632 -14.19903 -2.642696 -6.516113 10.12839 -21.36364 -0 5.011698 -0 8.799527 -19.2361 25.6005 -3.334125 -3.212016 4.577794 2.609898 9.512693 -7.851274 1.66147 21.43794 6.650349 3.335513 -24.63426 9.534831 6.470834 -19.30415 11.55905 84.72247 33.94377 -19.13409 -0 0 16.37012 -8.084519 9.446578 4.130233 7.546298 -20.58949 -0.7339584 -93.6382 24.46212 21.12511 0 0 -15.18939 12.36933 18.37149 -0.1731758
0.9579679 101.8175 6.025991 -0.124865 1.706888 0.4144062 5.54501 -25.64309 8.630743 -0 29.86865 -0 -5.21187 -12.83985 -2.23274 -6.541515 10.62706 -21.14277 -0 4.295098 -0 8.778874 -20.36316 25.49562 -3.266316 -3.057446 4.761025 2.860857 9.449339 -8.000529 1.666052 20.78168 6.918446 3.553975 -25.75213 9.858915 6.358077 -19.4417 11.44395 84.95579 34.62934 -19.59918 -0 0 16.4868 -7.636124 9.415211 4.046753 7.927543 -20.81138 -0.4233626 -93.60513 24.08018 21.15921 0 0 -16.29378 12.60975 17.18053 -0.3198673
1.323441 101.0157 8.459582 -0.4609769 2.788797 0.6927343 6.322039 -28.18609 8.631832 -0 26.59345 -0 -5.266093 -11.27225 -1.882463 -6.418219 11.24748 -20.68782 -0 3.985631 -0 8.181369 -21.52092 24.88227 -3.119169 -2.86211 4.772137 3.104793 9.340235 -8.18013 1.645573 20.18699 7.173705 3.773542 -26.68055 10.09458 6.24633 -19.39391 11.33214 85.19415 35.07577 -20.10637 -0 0 16.38571 -7.386185 9.453123 4.011295 8.281858 -21.08246 -0.1471576 -93.52306 23.82698 21.05978 0 0 -17.28697 12.59598 16.25845 -0.2595356
1.690542 100.121 11.22231 -0.8994321 3.748848 1.062027 7.146633 -30.60497 8.526018 -0 23.53612 -0 -5.507181 -9.481914 -1.567122 -6.153628 11.96232 -19.99248 -0 4.228269 -0 7.072489 -22.55866 23.7693 -2.871684 -2.632081 4.630237 3.341426 9.217868 -8.38816 1.595417 19.65187 7.41632 3.98485 -27.45552 10.24462 6.112575 -19.19212 11.23533 85.48757 35.29688 -20.6636 -0 0 16.043 -7.328851 9.552243 4.033372 8.584964 -21.40097 0.06507192 -93.36842 23.62162 20.81666 0 0 -18.17444 12.44223 15.51463 -0.1064958
2.052019 99.1728 14.36957 -1.44555 4.597273 1.520426 8.046263 -32.7267 8.425842 -0 20.8015 -0 -5.941061 -7.580808 -1.280425 -5.758168 12.68928 -19.13662 -0 5.159252 -0 5.468785 -23.31284 22.20319 -2.504777 -2.374537 4.368493 3.569343 9.084975 -8.614672 1.515944 19.16406 7.646829 4.180612 -28.136 10.32594 5.959588 -18.88359 11.14575 85.83756 35.39279 -21.23648 -0 0 15.54497 -7.359443 9.683248 4.090301 8.786346 -21.69483 0.2139686 -93.22677 23.51623 20.56918 0 0 -18.8643 12.08869 14.85894 0.2463709
2.403932 98.22505 17.96116 -2.090778 5.292247 2.052967 8.99993 -34.35997 8.338308 -0 18.45931 -0 -6.575789 -5.670583 -1.019009 -5.236476 13.34631 -18.12675 -0 7.063383 -0 3.403442 -23.55816 20.17436 -2.002066 -2.085484 3.999572 3.784567 8.950486 -8.844624 1.403181 18.74669 7.853221 4.341166 -28.70384 10.32498 5.790119 -18.47162 11.07409 86.25297 35.39607 -21.79126 -0 0 14.87158 -7.4557 9.839972 4.198566 8.823822 -21.92245 0.2642323 -93.08854 23.5018 20.33087 0 0 -19.31683 11.53903 14.24027 0.8104781
2.748334 97.35597 22.05287 -2.800402 5.77323 2.623839 9.941352 -35.21241 8.251367 -0 16.62977 -0 -7.392833 -3.949692 -0.7887367 -4.609967 13.77837 -16.98954 -0 10.32263 -0 0.975719 -23.00482 17.73067 -1.360424 -1.761399 3.555413 3.977702 8.822241 -9.049435 1.253161 18.43719 8.0178 4.441523 -29.11589 10.22105 5.626357 -17.96167 11.03732 86.718 35.36548 -22.26854 -0 0 14.0161 -7.587407 10.01785 4.382608 8.616363 -22.02145 0.1767129 -92.94808 23.58299 20.13551 0 0 -19.48328 10.77588 13.60705 1.627387
3.096094 96.67196 26.68412 -3.489667 5.951223 3.166263 10.71806 -34.8954 8.088364 -0 15.43521 -0 -8.323136 -2.719013 -0.6063298 -3.935023 13.73117 -15.75891 -0 15.41296 -0 -1.586221 -21.33337 15.0194 -0.6100752 -1.402078 3.103219 4.129493 8.716252 -9.181931 1.062991 18.2949 8.116421 4.453667 -29.28598 9.983588 5.511109 -17.36325 11.06491 87.1896 35.36853 -22.59068 -0 0 12.97113 -7.749469 10.22154 4.683729 8.082921 -21.93076 -0.08894917 -92.77282 23.74317 19.99899 0 0 -19.35362 9.8094 12.91439 2.706331
3.468679 96.30391 31.85048 -4.009783 5.736464 3.582814 11.099 -32.99296 7.733255 -0 14.94742 -0 -9.219801 -2.359555 -0.4943557 -3.319901 12.82225 -14.49411 -0 22.73902 -0 -3.910686 -18.33505 12.32515 0.1581474 -1.013104 2.771108 4.2077 8.660996 -9.175489 0.8360144 18.38432 8.127383 4.363 -29.11115 9.58943 5.510364 -16.71453 11.19327 87.57994 35.49332 -22.66851 -0 0 11.78217 -7.964081 10.46287 5.148692 7.183117 -21.60913 -0.5443746 -92.52159 23.9476 19.94451 0 0 -18.99055 8.684607 12.12403 4.01877
3.892184 96.37835 37.46909 -4.165835 5.077418 3.771327 10.85256 -29.26196 7.087498 -0 15.0574 -0 -9.872805 -3.17086 -0.4543015 -2.910642 10.60399 -13.26309 -0 32.28034 -0 -5.58438 -14.15981 10.01398 0.7761209 -0.6080429 2.743497 4.168877 8.701367 -8.961896 0.5880528 18.74673 8.04252 4.189611 -28.51788 9.043099 5.684792 -16.10138 11.4506 87.76306 35.80484 -22.43318 -0 0 10.58523 -8.311268 10.75737 5.807861 5.986597 -21.0919 -1.140491 -92.1542 24.13504 19.98901 0 0 -18.57265 7.508682 11.23307 5.453619
4.378111 96.95444 43.3601 -3.80066 4.009472 3.68252 9.902382 -23.90666 6.162084 -0 15.35348 -0 -10.10317 -5.086813 -0.4284185 -2.811667 6.782015 -12.10567 -0 43.08633 -0 -6.364198 -9.532076 8.416477 1.03474 -0.2134964 3.189738 3.973759 8.886488 -8.514835 0.3506859 19.35991 7.873599 3.994784 -27.53887 8.393287 6.022295 -15.66247 11.82692 87.62297 36.26946 -21.87115 -0 0 9.618322 -8.933342 11.10513 6.63755 4.722156 -20.53989 -1.7555 -91.66074 24.22893 20.1222 0 0 -18.3622 6.449291 10.31291 6.797242
4.900665 97.95011 49.28157 -2.918632 2.662105 3.368288 8.437788 -17.65193 5.095475 -0 15.19698 -0 -9.900197 -7.51211 -0.3210215 -2.961833 1.518565 -10.98989 -0 53.08703 -0 -6.336756 -5.60683 7.756857 0.8008611 0.1269321 4.126301 3.613999 9.230146 -7.890202 0.1645581 20.12782 7.639009 3.841947 -26.34391 7.721043 6.369648 -15.55115 12.24885 87.13267 36.69824 -21.0136 -0 0 9.147367 -9.97109 11.46028 7.541809 3.719487 -20.19066 -2.237957 -91.09418 24.1728 20.28653 0 0 -18.53608 5.674227 9.516466 7.788253
5.401699 99.12453 55.01942 -1.735145 1.20686 2.95843 6.854986 -11.37712 4.07655 -0 14.11444 -0 -9.443604 -9.640022 -0.108475 -3.099139 -4.516337 -9.816722 -0 59.79544 -0 -5.845221 -3.331064 8.14809 0.140901 0.3760663 5.338045 3.126921 9.667184 -7.201247 0.06230038 20.92355 7.345719 3.736505 -25.1496 7.106228 6.475808 -15.86129 12.59755 86.36642 36.82945 -19.84813 -0 0 9.345848 -11.44042 11.72488 8.405565 3.225404 -20.17102 -2.483248 -90.57496 23.97621 20.41506 0 0 -18.99414 5.234513 8.983726 8.286101
5.833828 100.1562 60.46743 -0.5700379 -0.1929905 2.578084 5.546682 -5.632677 3.265103 -0 12.16978 -0 -8.923054 -11.06651 0.1169388 -2.90755 -10.54084 -8.493229 -0 61.57454 -0 -5.233167 -2.846382 9.53659 -0.6958437 0.5493787 6.493232 2.576384 10.06917 -6.535896 0.05064088 21.63807 7.00261 3.623561 -24.07777 6.6052 6.171615 -16.57959 12.77648 85.39184 36.53304 -18.25194 -0 0 10.25344 -13.18852 11.8021 9.196484 3.251933 -20.35967 -2.477352 -90.23334 23.71256 20.51708 0 0 -19.41475 5.002486 8.70177 8.415804
6.198978 100.7571 65.64136 0.3121392 -1.384344 2.287107 4.717616 -0.5756903 2.750387 -0 9.865437 -0 -8.360228 -11.98491 0.2593618 -2.197073 -16.0767 -6.995127 -0 58.2373 -0 -4.674925 -3.577873 11.63982 -1.429618 0.7101594 7.344366 2.022084 10.32133 -5.921571 0.105244 22.18611 6.646646 3.448925 -23.12913 6.246049 5.494819 -17.6103 12.76663 84.18716 35.89792 -16.07686 -0 0 11.83002 -15.00795 11.66406 9.997244 3.612618 -20.49249 -2.284478 -90.13131 23.45137 20.69982 0 0 -19.51841 4.759503 8.507041 8.487842
6.545685 100.7426 70.64733 0.769367 -2.236143 2.074908 4.369373 3.800851 2.524766 -0 7.761276 -0 -7.658185 -12.84854 0.3111555 -0.946803 -20.93278 -5.362614 -0 50.65717 -0 -4.213649 -4.759544 14.01655 -1.869807 0.9010743 7.798658 1.511214 10.37022 -5.363094 0.1879187 22.50937 6.327482 3.197906 -22.25994 6.026438 4.62188 -18.82527 12.61529 82.70185 35.08002 -13.30049 -0 0 13.9804 -16.77015 11.35836 10.92965 4.069153 -20.35724 -2.009628 -90.25168 23.20786 21.08777 0 0 -19.17501 4.341753 8.252119 8.767088
6.941433 100.0528 75.64583 0.7722708 -2.684349 1.883516 4.376975 7.549268 2.486853 -0 6.285786 -0 -6.74981 -14.02495 0.3331931 0.7073937 -24.96362 -3.709249 -0 40.27523 -0 -3.856032 -5.774014 16.20496 -1.941503 1.093129 7.872673 1.083888 10.20805 -4.872673 0.2752868 22.60206 6.069049 2.887618 -21.43778 5.919112 3.736796 -20.07874 12.38713 80.96735 34.13014 -10.09402 -0 0 16.51695 -18.44362 10.96244 12.06343 4.426491 -19.86132 -1.762305 -90.54657 22.9644 21.74199 0 0 -18.30699 3.70014 7.93481 9.346088
